#!OML:ASF F:\VICON\USERDATA\INSTALL\rory3\rory3.ASF
:FULLY-SPECIFIED
:DEGREES
26
root 0.647370972464307 17.849786868734896 2.011755540152352 -1.3402318826979003 0.950730146246753 3.334072983404812
lfemur 8.393608012828647 -2.2007183834021866 -27.881954994999134
ltibia 16.353374722120872
lfoot -15.982906817814548 0.8267953605346621
ltoes -2.3038922723480146
rfemur -27.048849785827677 6.163375498877468 15.80232134017038
rtibia 18.91367353939377
rfoot -8.468706992050555 -17.00741608582444
rtoes -2.194321099365522
lowerback 9.533799630975095 -0.7846921844963936 -4.7855856540242385
upperback 0.3361492415718591 -1.5694322911437562 0.7508005655571667
thorax -4.822991782713458 -0.6578820207846833 3.36775032505794
lowerneck -17.000371136431983 -2.8515272790736628 -2.2462802496811936
upperneck 20.83005235998643 -3.565387802145417 0.6815289292994292
head 9.416153738009166 -1.7577319272295424 0.17003069625723533
lclavicle -3.164462832522754e-15 -6.617847695773033e-16
lhumerus -23.011176809663155 -5.10389567618261 82.42450631389039
lradius 29.551930068523024
lwrist 7.335313502519387
lhand -27.194994664242017 27.37794794477653
lfingers 7.1250199999999975
lthumb -0.6084140220084936 57.35189305932482
rclavicle -3.164462832522754e-15 -6.617847695773033e-16
rhumerus -30.635934738910034 -20.20955499124889 -78.3764178033507
rradius 22.616238496542035
rwrist 7.16249766520399
rhand -17.226605565866127 22.489380753982385
rfingers 7.1250199999999975
rthumb 9.01654688934262 -7.471625476975061
27
root 0.5439205518749546 17.761153534902057 3.3237640988760706 -1.077357238603632 1.801620362481831 3.380723722460552
lfemur 11.038900443005613 -2.7991767574573765 -27.448194779969153
ltibia 16.904777883977737
lfoot -15.72456110388838 -0.038503161639890426
ltoes -5.68069934101037
rfemur -26.909282913855236 6.629572032946131 15.674540902672174
rtibia 16.21281155970753
rfoot -8.238783491025387 -15.422102954860822
rtoes -3.7000463764195852
lowerback 9.449149898476401 -1.0025655115175973 -5.017729350251533
upperback 0.2983251335833332 -1.854613421962029 0.9283610130628539
thorax -4.8046594407106005 -0.7957816518239039 3.6761838938030076
lowerneck -17.112733521683268 -2.856495595168578 -2.2452481462913214
upperneck 20.79681204107776 -3.580553919943481 0.6956431052358958
head 9.416158570815496 -1.7588809750270809 0.15711497712107692
lclavicle -3.227754605691566e-15 -7.039805522243459e-16
lhumerus -22.052549149085262 -5.478594738376762 82.55541014462754
lradius 30.675104124706895
lwrist 7.582280186066441
lhand -28.16293276143059 25.95958015727671
lfingers 7.1250199999999975
lthumb -1.5432323142611266 55.92864728026766
rclavicle -3.227754605691566e-15 -7.039805522243458e-16
rhumerus -31.284981255631013 -22.053416443120028 -77.31977400124491
rradius 21.624646188581938
rwrist 8.394189293538869
rhand -17.542760332802093 22.339414203110728
rfingers 7.1250199999999975
rthumb 8.711392499376307 -7.4172997276332024
28
root 0.4170889351792397 17.705256257668662 5.053743640620389 -1.2402889752787039 1.932840271969055 2.8183588868809024
lfemur 12.60477662353545 -3.6716834312360214 -26.712114460140164
ltibia 19.592531185989905
lfoot -13.507064569538446 -2.3922378951566934
ltoes -10.807929844781317
rfemur -27.20822318655287 6.115729080350901 16.714444655153603
rtibia 19.97076091930241
rfoot -6.846657763180216 -11.36766983898498
rtoes -2.7467483678153983
lowerback 9.450964059097767 -1.1261235140198158 -4.8541401287739
upperback 0.30366147544194017 -1.9998803703382317 1.2062796950990669
thorax -4.806886923142481 -0.8638759988079959 3.7823740613561263
lowerneck -17.30919937974539 -2.840805999436013 -2.235983621105385
upperneck 20.8696741265455 -3.545664563632776 0.5815276732213932
head 9.482845639430533 -1.747269966649436 0.13164527411106652
lclavicle -3.5572957943130264e-15 -9.231264466776785e-16
lhumerus -22.14864007484983 -5.110191539332396 82.77981073330021
lradius 31.099330463439294
lwrist 7.295521430702443
lhand -29.136625826368732 23.97676056178951
lfingers 7.1250199999999975
lthumb -2.483576864884575 53.93257942365694
rclavicle -3.5572957943130264e-15 -9.231264466776785e-16
rhumerus -32.17443145909802 -24.398468331825896 -76.06008807547349
rradius 20.370680730529656
rwrist 10.301041295294834
rhand -17.750298659603864 22.142042941254118
rfingers 7.1250199999999975
rthumb 8.511065906612393 -7.605475935394756
29
root 0.30744986317255235 17.720603980128256 5.380394773564558 -1.6613263775832463 1.9015386621797967 1.515284649969726
lfemur 12.310069345996055 -4.058767935620205 -24.788819685172225
ltibia 26.553943945994483
lfoot -8.461179789638573 -5.880393655310776
ltoes -15.40300143495255
rfemur -27.200021647659973 5.474929177100345 19.172903018760604
rtibia 26.20635092233173
rfoot -5.508286707984208 -7.676319664018762
rtoes 0.8801652194376417
lowerback 9.580036158309227 -1.2364615362167055 -3.8640880602162966
upperback 0.3001801876464143 -2.0004288036196396 1.6765308054834496
thorax -4.895615066546072 -0.881615691580545 3.742812809035088
lowerneck -17.32491715876807 -2.7552341679168766 -2.1097407163901623
upperneck 21.032330705393115 -3.4049545950821773 0.28474664278538253
head 9.535615411155922 -1.7010555629172108 0.06337113117202674
lclavicle -3.5145405831907503e-15 -8.933272776827652e-16
lhumerus -22.76555566119996 -4.165968212905193 83.15670059546247
lradius 31.000463587602177
lwrist 7.4163122692363395
lhand -29.483138180438896 23.71041522856615
lfingers 7.1250199999999975
lthumb -2.81823560970362 53.6660216596488
rclavicle -3.5145405831907503e-15 -8.933272776827652e-16
rhumerus -32.95853986140057 -26.517323696393383 -74.63272399082561
rradius 19.224975281332195
rwrist 11.956810402078936
rhand -17.695851828310207 21.836254508414548
rfingers 7.1250199999999975
rthumb 8.563582703826508 -7.966925163944401
